<svg xmlns="http://www.w3.org/2000/svg" xmlns:xlink="http://www.w3.org/1999/xlink" width="420" zoomAndPan="magnify" viewBox="0 0 315 52.499999" height="70" preserveAspectRatio="xMidYMid meet" version="1.0"><defs><g/><clipPath id="da600bdc8e"><path d="M 1.484375 0 L 313.511719 0 L 313.511719 52.003906 L 1.484375 52.003906 Z M 1.484375 0 " clip-rule="nonzero"/></clipPath></defs><g clip-path="url(#da600bdc8e)"><path fill="#ffffff" d="M 1.484375 0 L 313.515625 0 L 313.515625 52.003906 L 1.484375 52.003906 Z M 1.484375 0 " fill-opacity="1" fill-rule="nonzero"/><path fill="#c70000" d="M 1.484375 0 L 313.515625 0 L 313.515625 52.003906 L 1.484375 52.003906 Z M 1.484375 0 " fill-opacity="1" fill-rule="nonzero"/></g><g fill="#ffffff" fill-opacity="1"><g transform="translate(12.639482, 35.725839)"><g><path d="M 8.03125 -22.34375 L 8.03125 -21.65625 C 7.789062 -21.65625 7.523438 -21.648438 7.234375 -21.640625 C 6.941406 -21.628906 6.671875 -21.597656 6.421875 -21.546875 C 6.171875 -21.492188 5.960938 -21.398438 5.796875 -21.265625 C 5.640625 -21.140625 5.5625 -20.96875 5.5625 -20.75 C 5.5625 -20.6875 5.59375 -20.566406 5.65625 -20.390625 C 5.726562 -20.222656 5.796875 -20.050781 5.859375 -19.875 L 11.328125 -4.6875 L 11.390625 -4.6875 L 15.40625 -16.125 L 14.375 -19.03125 C 14.15625 -19.632812 13.941406 -20.101562 13.734375 -20.4375 C 13.535156 -20.78125 13.304688 -21.039062 13.046875 -21.21875 C 12.785156 -21.40625 12.492188 -21.519531 12.171875 -21.5625 C 11.847656 -21.601562 11.457031 -21.632812 11 -21.65625 L 11 -22.34375 L 20.234375 -22.34375 L 20.234375 -21.65625 C 19.972656 -21.632812 19.679688 -21.613281 19.359375 -21.59375 C 19.035156 -21.570312 18.734375 -21.507812 18.453125 -21.40625 C 18.171875 -21.3125 17.929688 -21.160156 17.734375 -20.953125 C 17.546875 -20.753906 17.453125 -20.460938 17.453125 -20.078125 C 17.472656 -19.921875 17.515625 -19.726562 17.578125 -19.5 C 17.640625 -19.28125 17.734375 -18.960938 17.859375 -18.546875 C 17.992188 -18.140625 18.179688 -17.59375 18.421875 -16.90625 L 22.59375 -4.921875 L 22.65625 -4.921875 L 24.765625 -11.875 C 24.941406 -12.457031 25.148438 -13.128906 25.390625 -13.890625 C 25.640625 -14.660156 25.878906 -15.429688 26.109375 -16.203125 C 26.335938 -16.972656 26.523438 -17.695312 26.671875 -18.375 C 26.828125 -19.050781 26.90625 -19.617188 26.90625 -20.078125 C 26.90625 -20.421875 26.828125 -20.691406 26.671875 -20.890625 C 26.523438 -21.097656 26.332031 -21.25 26.09375 -21.34375 C 25.851562 -21.445312 25.578125 -21.515625 25.265625 -21.546875 C 24.953125 -21.578125 24.632812 -21.613281 24.3125 -21.65625 L 24.28125 -21.65625 L 24.28125 -22.34375 L 30.140625 -22.34375 L 30.140625 -21.65625 C 29.640625 -21.570312 29.222656 -21.351562 28.890625 -21 C 28.554688 -20.644531 28.28125 -20.226562 28.0625 -19.75 C 27.851562 -19.269531 27.675781 -18.773438 27.53125 -18.265625 C 27.394531 -17.765625 27.269531 -17.332031 27.15625 -16.96875 L 21.75 0.453125 L 21.171875 0.453125 L 15.828125 -15.09375 L 15.765625 -15.09375 L 10.390625 0.453125 L 9.84375 0.453125 L 2.625 -18.609375 C 2.445312 -19.066406 2.304688 -19.472656 2.203125 -19.828125 C 2.097656 -20.179688 1.972656 -20.484375 1.828125 -20.734375 C 1.691406 -20.984375 1.503906 -21.179688 1.265625 -21.328125 C 1.023438 -21.484375 0.691406 -21.59375 0.265625 -21.65625 L 0.234375 -21.65625 L 0.234375 -22.34375 Z M 8.03125 -22.34375 "/></g></g></g><g fill="#ffffff" fill-opacity="1"><g transform="translate(44.48761, 35.725839)"><g><path d="M 10.90625 -22.34375 L 10.90625 -21.65625 C 10.582031 -21.65625 10.242188 -21.644531 9.890625 -21.625 C 9.535156 -21.601562 9.210938 -21.539062 8.921875 -21.4375 C 8.628906 -21.34375 8.382812 -21.175781 8.1875 -20.9375 C 8 -20.707031 7.90625 -20.363281 7.90625 -19.90625 L 7.90625 -2.421875 C 7.90625 -1.972656 7.992188 -1.632812 8.171875 -1.40625 C 8.359375 -1.175781 8.597656 -1.007812 8.890625 -0.90625 C 9.179688 -0.800781 9.503906 -0.738281 9.859375 -0.71875 C 10.210938 -0.695312 10.5625 -0.6875 10.90625 -0.6875 L 10.90625 0 L 1.6875 0 L 1.6875 -0.6875 C 2.007812 -0.6875 2.34375 -0.695312 2.6875 -0.71875 C 3.03125 -0.738281 3.347656 -0.800781 3.640625 -0.90625 C 3.929688 -1.007812 4.164062 -1.175781 4.34375 -1.40625 C 4.53125 -1.632812 4.625 -1.972656 4.625 -2.421875 L 4.625 -19.90625 C 4.625 -20.363281 4.53125 -20.703125 4.34375 -20.921875 C 4.164062 -21.148438 3.929688 -21.316406 3.640625 -21.421875 C 3.347656 -21.535156 3.03125 -21.601562 2.6875 -21.625 C 2.34375 -21.644531 2.007812 -21.65625 1.6875 -21.65625 L 1.6875 -22.34375 Z M 10.90625 -22.34375 "/></g></g></g><g fill="#ffffff" fill-opacity="1"><g transform="translate(58.37277, 35.725839)"><g><path d="M 18.515625 -22.34375 L 20.109375 -17.125 L 19.421875 -16.96875 C 18.992188 -17.613281 18.566406 -18.222656 18.140625 -18.796875 C 17.722656 -19.367188 17.265625 -19.863281 16.765625 -20.28125 C 16.273438 -20.707031 15.722656 -21.039062 15.109375 -21.28125 C 14.492188 -21.53125 13.773438 -21.65625 12.953125 -21.65625 L 7.90625 -21.65625 L 7.90625 -11.71875 L 9.1875 -11.71875 C 10.1875 -11.71875 11.007812 -11.757812 11.65625 -11.84375 C 12.300781 -11.9375 12.835938 -12.125 13.265625 -12.40625 C 13.703125 -12.6875 14.050781 -13.09375 14.3125 -13.625 C 14.570312 -14.164062 14.796875 -14.890625 14.984375 -15.796875 L 15.5 -15.796875 L 15.5 -6.46875 L 14.984375 -6.46875 L 14.984375 -6.5 C 14.898438 -7.28125 14.765625 -7.945312 14.578125 -8.5 C 14.398438 -9.050781 14.128906 -9.5 13.765625 -9.84375 C 13.410156 -10.1875 12.953125 -10.4375 12.390625 -10.59375 C 11.835938 -10.757812 11.140625 -10.84375 10.296875 -10.84375 L 7.90625 -10.84375 L 7.90625 -2.203125 C 7.90625 -1.878906 7.960938 -1.613281 8.078125 -1.40625 C 8.191406 -1.195312 8.347656 -1.039062 8.546875 -0.9375 C 8.742188 -0.832031 8.960938 -0.765625 9.203125 -0.734375 C 9.453125 -0.703125 9.707031 -0.6875 9.96875 -0.6875 L 13.890625 -0.6875 C 14.554688 -0.6875 15.164062 -0.78125 15.71875 -0.96875 C 16.269531 -1.164062 16.867188 -1.585938 17.515625 -2.234375 C 17.921875 -2.640625 18.375 -3.128906 18.875 -3.703125 C 19.375 -4.273438 19.90625 -5.023438 20.46875 -5.953125 L 21.015625 -5.796875 L 19.71875 0 L 2.109375 0 L 2.109375 -0.6875 C 2.453125 -0.6875 2.78125 -0.703125 3.09375 -0.734375 C 3.40625 -0.765625 3.671875 -0.832031 3.890625 -0.9375 C 4.117188 -1.039062 4.296875 -1.207031 4.421875 -1.4375 C 4.554688 -1.664062 4.625 -1.992188 4.625 -2.421875 L 4.625 -19.90625 C 4.625 -20.550781 4.421875 -21.003906 4.015625 -21.265625 C 3.609375 -21.523438 2.992188 -21.65625 2.171875 -21.65625 L 2 -21.65625 L 2 -22.34375 Z M 18.515625 -22.34375 "/></g></g></g><g fill="#ffffff" fill-opacity="1"><g transform="translate(83.035705, 35.725839)"><g><path d="M 5.859375 -22.34375 L 21.890625 -4.765625 L 21.890625 -19.6875 C 21.890625 -20.113281 21.8125 -20.445312 21.65625 -20.6875 C 21.507812 -20.925781 21.304688 -21.109375 21.046875 -21.234375 C 20.785156 -21.367188 20.484375 -21.460938 20.140625 -21.515625 C 19.796875 -21.566406 19.425781 -21.613281 19.03125 -21.65625 L 19.03125 -22.34375 L 25.703125 -22.34375 L 25.703125 -21.65625 C 25.398438 -21.59375 25.078125 -21.519531 24.734375 -21.4375 C 24.390625 -21.363281 24.070312 -21.257812 23.78125 -21.125 C 23.488281 -20.988281 23.242188 -20.804688 23.046875 -20.578125 C 22.859375 -20.347656 22.765625 -20.050781 22.765625 -19.6875 L 22.765625 0.265625 L 22.28125 0.265625 L 4.734375 -18.84375 L 4.734375 -2.421875 C 4.734375 -1.890625 4.96875 -1.476562 5.4375 -1.1875 C 5.914062 -0.894531 6.671875 -0.726562 7.703125 -0.6875 L 7.703125 0 L 1 0 L 1 -0.6875 C 1.5625 -0.726562 2.023438 -0.785156 2.390625 -0.859375 C 2.765625 -0.929688 3.054688 -1.050781 3.265625 -1.21875 C 3.484375 -1.394531 3.632812 -1.628906 3.71875 -1.921875 C 3.8125 -2.210938 3.859375 -2.585938 3.859375 -3.046875 L 3.859375 -19.78125 C 3.359375 -20.300781 2.898438 -20.738281 2.484375 -21.09375 C 2.078125 -21.445312 1.59375 -21.632812 1.03125 -21.65625 L 1.03125 -22.34375 Z M 5.859375 -22.34375 "/></g></g></g><g fill="#ffffff" fill-opacity="1"><g transform="translate(111.291247, 35.725839)"><g><path d="M 18.515625 -22.34375 L 20.109375 -17.125 L 19.421875 -16.96875 C 18.992188 -17.613281 18.566406 -18.222656 18.140625 -18.796875 C 17.722656 -19.367188 17.265625 -19.863281 16.765625 -20.28125 C 16.273438 -20.707031 15.722656 -21.039062 15.109375 -21.28125 C 14.492188 -21.53125 13.773438 -21.65625 12.953125 -21.65625 L 7.90625 -21.65625 L 7.90625 -11.71875 L 9.1875 -11.71875 C 10.1875 -11.71875 11.007812 -11.757812 11.65625 -11.84375 C 12.300781 -11.9375 12.835938 -12.125 13.265625 -12.40625 C 13.703125 -12.6875 14.050781 -13.09375 14.3125 -13.625 C 14.570312 -14.164062 14.796875 -14.890625 14.984375 -15.796875 L 15.5 -15.796875 L 15.5 -6.46875 L 14.984375 -6.46875 L 14.984375 -6.5 C 14.898438 -7.28125 14.765625 -7.945312 14.578125 -8.5 C 14.398438 -9.050781 14.128906 -9.5 13.765625 -9.84375 C 13.410156 -10.1875 12.953125 -10.4375 12.390625 -10.59375 C 11.835938 -10.757812 11.140625 -10.84375 10.296875 -10.84375 L 7.90625 -10.84375 L 7.90625 -2.203125 C 7.90625 -1.878906 7.960938 -1.613281 8.078125 -1.40625 C 8.191406 -1.195312 8.347656 -1.039062 8.546875 -0.9375 C 8.742188 -0.832031 8.960938 -0.765625 9.203125 -0.734375 C 9.453125 -0.703125 9.707031 -0.6875 9.96875 -0.6875 L 13.890625 -0.6875 C 14.554688 -0.6875 15.164062 -0.78125 15.71875 -0.96875 C 16.269531 -1.164062 16.867188 -1.585938 17.515625 -2.234375 C 17.921875 -2.640625 18.375 -3.128906 18.875 -3.703125 C 19.375 -4.273438 19.90625 -5.023438 20.46875 -5.953125 L 21.015625 -5.796875 L 19.71875 0 L 2.109375 0 L 2.109375 -0.6875 C 2.453125 -0.6875 2.78125 -0.703125 3.09375 -0.734375 C 3.40625 -0.765625 3.671875 -0.832031 3.890625 -0.9375 C 4.117188 -1.039062 4.296875 -1.207031 4.421875 -1.4375 C 4.554688 -1.664062 4.625 -1.992188 4.625 -2.421875 L 4.625 -19.90625 C 4.625 -20.550781 4.421875 -21.003906 4.015625 -21.265625 C 3.609375 -21.523438 2.992188 -21.65625 2.171875 -21.65625 L 2 -21.65625 L 2 -22.34375 Z M 18.515625 -22.34375 "/></g></g></g><g fill="#ffffff" fill-opacity="1"><g transform="translate(135.954182, 35.725839)"><g><path d="M 2.265625 -22.34375 C 2.867188 -22.34375 3.582031 -22.347656 4.40625 -22.359375 C 5.226562 -22.367188 6.046875 -22.382812 6.859375 -22.40625 C 7.679688 -22.425781 8.457031 -22.441406 9.1875 -22.453125 C 9.925781 -22.460938 10.519531 -22.46875 10.96875 -22.46875 C 12.09375 -22.46875 13.164062 -22.351562 14.1875 -22.125 C 15.21875 -21.894531 16.109375 -21.53125 16.859375 -21.03125 C 17.617188 -20.539062 18.222656 -19.910156 18.671875 -19.140625 C 19.128906 -18.378906 19.359375 -17.457031 19.359375 -16.375 C 19.359375 -15.539062 19.238281 -14.816406 19 -14.203125 C 18.757812 -13.585938 18.421875 -13.039062 17.984375 -12.5625 C 17.546875 -12.082031 17.007812 -11.675781 16.375 -11.34375 C 15.75 -11.007812 15.050781 -10.710938 14.28125 -10.453125 C 15.46875 -9.160156 16.410156 -8.003906 17.109375 -6.984375 C 17.804688 -5.972656 18.375 -5.101562 18.8125 -4.375 C 19.21875 -3.695312 19.523438 -3.125 19.734375 -2.65625 C 19.941406 -2.195312 20.160156 -1.851562 20.390625 -1.625 C 20.742188 -1.269531 21.117188 -1.023438 21.515625 -0.890625 C 21.910156 -0.753906 22.378906 -0.6875 22.921875 -0.6875 L 22.921875 0 L 17.546875 0 C 16.878906 -1.144531 16.265625 -2.179688 15.703125 -3.109375 C 15.140625 -4.035156 14.617188 -4.84375 14.140625 -5.53125 C 13.304688 -6.757812 12.625 -7.675781 12.09375 -8.28125 C 11.5625 -8.882812 11.0625 -9.304688 10.59375 -9.546875 C 10.15625 -9.742188 9.71875 -9.875 9.28125 -9.9375 C 8.851562 -10 8.359375 -10.050781 7.796875 -10.09375 L 7.796875 -2.390625 C 7.796875 -1.960938 7.859375 -1.632812 7.984375 -1.40625 C 8.117188 -1.175781 8.3125 -1.007812 8.5625 -0.90625 C 8.8125 -0.800781 9.101562 -0.738281 9.4375 -0.71875 C 9.769531 -0.695312 10.140625 -0.6875 10.546875 -0.6875 L 10.546875 0 L 2.140625 0 L 2.140625 -0.6875 C 2.984375 -0.6875 3.59375 -0.765625 3.96875 -0.921875 C 4.34375 -1.085938 4.53125 -1.515625 4.53125 -2.203125 L 4.53125 -19.9375 C 4.53125 -20.351562 4.472656 -20.671875 4.359375 -20.890625 C 4.253906 -21.117188 4.097656 -21.285156 3.890625 -21.390625 C 3.691406 -21.503906 3.453125 -21.578125 3.171875 -21.609375 C 2.890625 -21.640625 2.585938 -21.65625 2.265625 -21.65625 Z M 7.796875 -10.78125 C 8.171875 -10.78125 8.570312 -10.789062 9 -10.8125 C 9.425781 -10.832031 9.835938 -10.851562 10.234375 -10.875 C 10.703125 -10.914062 11.132812 -10.960938 11.53125 -11.015625 C 11.9375 -11.078125 12.351562 -11.191406 12.78125 -11.359375 C 14.8125 -12.179688 15.828125 -13.867188 15.828125 -16.421875 C 15.828125 -17.992188 15.351562 -19.28125 14.40625 -20.28125 C 13.457031 -21.28125 12.054688 -21.78125 10.203125 -21.78125 C 9.484375 -21.78125 8.898438 -21.675781 8.453125 -21.46875 C 8.015625 -21.269531 7.796875 -20.757812 7.796875 -19.9375 Z M 7.796875 -10.78125 "/></g></g></g><g fill="#ffffff" fill-opacity="1"><g transform="translate(160.617117, 35.725839)"><g/></g></g><g fill="#ffffff" fill-opacity="1"><g transform="translate(170.003448, 35.725839)"><g><path d="M 10.234375 -22.40625 C 11.347656 -22.40625 12.382812 -22.265625 13.34375 -21.984375 C 14.3125 -21.703125 15.144531 -21.28125 15.84375 -20.71875 C 16.550781 -20.15625 17.097656 -19.457031 17.484375 -18.625 C 17.867188 -17.800781 18.0625 -16.835938 18.0625 -15.734375 C 18.0625 -14.847656 17.914062 -14.078125 17.625 -13.421875 C 17.332031 -12.765625 16.941406 -12.207031 16.453125 -11.75 C 15.972656 -11.300781 15.429688 -10.929688 14.828125 -10.640625 C 14.222656 -10.347656 13.613281 -10.117188 13 -9.953125 C 12.382812 -9.796875 11.78125 -9.679688 11.1875 -9.609375 C 10.59375 -9.546875 10.078125 -9.515625 9.640625 -9.515625 L 6.578125 -9.515625 L 6.578125 -2.421875 C 6.578125 -1.972656 6.664062 -1.632812 6.84375 -1.40625 C 7.03125 -1.175781 7.265625 -1.007812 7.546875 -0.90625 C 7.828125 -0.800781 8.132812 -0.738281 8.46875 -0.71875 C 8.800781 -0.695312 9.117188 -0.6875 9.421875 -0.6875 L 9.421875 0 L 0.96875 0 L 0.96875 -0.6875 C 1.351562 -0.6875 1.691406 -0.703125 1.984375 -0.734375 C 2.273438 -0.765625 2.519531 -0.832031 2.71875 -0.9375 C 2.914062 -1.039062 3.0625 -1.207031 3.15625 -1.4375 C 3.25 -1.664062 3.296875 -1.984375 3.296875 -2.390625 L 3.296875 -19.9375 C 3.296875 -20.351562 3.238281 -20.671875 3.125 -20.890625 C 3.007812 -21.117188 2.84375 -21.289062 2.625 -21.40625 C 2.40625 -21.53125 2.148438 -21.601562 1.859375 -21.625 C 1.566406 -21.644531 1.25 -21.65625 0.90625 -21.65625 L 0.90625 -22.34375 C 1.007812 -22.34375 1.285156 -22.347656 1.734375 -22.359375 C 2.191406 -22.367188 2.75 -22.375 3.40625 -22.375 C 4.070312 -22.375 4.796875 -22.378906 5.578125 -22.390625 C 6.367188 -22.398438 7.15625 -22.40625 7.9375 -22.40625 Z M 6.578125 -10.203125 L 7.9375 -10.203125 C 9.007812 -10.203125 9.957031 -10.253906 10.78125 -10.359375 C 11.601562 -10.460938 12.289062 -10.71875 12.84375 -11.125 C 13.40625 -11.539062 13.828125 -12.128906 14.109375 -12.890625 C 14.390625 -13.660156 14.53125 -14.71875 14.53125 -16.0625 C 14.53125 -17.894531 14.101562 -19.296875 13.25 -20.265625 C 12.40625 -21.234375 11.140625 -21.71875 9.453125 -21.71875 L 9.1875 -21.71875 C 8.757812 -21.71875 8.382812 -21.707031 8.0625 -21.6875 C 7.738281 -21.664062 7.460938 -21.59375 7.234375 -21.46875 C 7.003906 -21.351562 6.835938 -21.175781 6.734375 -20.9375 C 6.628906 -20.707031 6.578125 -20.375 6.578125 -19.9375 Z M 6.578125 -10.203125 "/></g></g></g><g fill="#ffffff" fill-opacity="1"><g transform="translate(191.073794, 35.725839)"><g><path d="M 2.265625 -22.34375 C 2.867188 -22.34375 3.582031 -22.347656 4.40625 -22.359375 C 5.226562 -22.367188 6.046875 -22.382812 6.859375 -22.40625 C 7.679688 -22.425781 8.457031 -22.441406 9.1875 -22.453125 C 9.925781 -22.460938 10.519531 -22.46875 10.96875 -22.46875 C 12.09375 -22.46875 13.164062 -22.351562 14.1875 -22.125 C 15.21875 -21.894531 16.109375 -21.53125 16.859375 -21.03125 C 17.617188 -20.539062 18.222656 -19.910156 18.671875 -19.140625 C 19.128906 -18.378906 19.359375 -17.457031 19.359375 -16.375 C 19.359375 -15.539062 19.238281 -14.816406 19 -14.203125 C 18.757812 -13.585938 18.421875 -13.039062 17.984375 -12.5625 C 17.546875 -12.082031 17.007812 -11.675781 16.375 -11.34375 C 15.75 -11.007812 15.050781 -10.710938 14.28125 -10.453125 C 15.46875 -9.160156 16.410156 -8.003906 17.109375 -6.984375 C 17.804688 -5.972656 18.375 -5.101562 18.8125 -4.375 C 19.21875 -3.695312 19.523438 -3.125 19.734375 -2.65625 C 19.941406 -2.195312 20.160156 -1.851562 20.390625 -1.625 C 20.742188 -1.269531 21.117188 -1.023438 21.515625 -0.890625 C 21.910156 -0.753906 22.378906 -0.6875 22.921875 -0.6875 L 22.921875 0 L 17.546875 0 C 16.878906 -1.144531 16.265625 -2.179688 15.703125 -3.109375 C 15.140625 -4.035156 14.617188 -4.84375 14.140625 -5.53125 C 13.304688 -6.757812 12.625 -7.675781 12.09375 -8.28125 C 11.5625 -8.882812 11.0625 -9.304688 10.59375 -9.546875 C 10.15625 -9.742188 9.71875 -9.875 9.28125 -9.9375 C 8.851562 -10 8.359375 -10.050781 7.796875 -10.09375 L 7.796875 -2.390625 C 7.796875 -1.960938 7.859375 -1.632812 7.984375 -1.40625 C 8.117188 -1.175781 8.3125 -1.007812 8.5625 -0.90625 C 8.8125 -0.800781 9.101562 -0.738281 9.4375 -0.71875 C 9.769531 -0.695312 10.140625 -0.6875 10.546875 -0.6875 L 10.546875 0 L 2.140625 0 L 2.140625 -0.6875 C 2.984375 -0.6875 3.59375 -0.765625 3.96875 -0.921875 C 4.34375 -1.085938 4.53125 -1.515625 4.53125 -2.203125 L 4.53125 -19.9375 C 4.53125 -20.351562 4.472656 -20.671875 4.359375 -20.890625 C 4.253906 -21.117188 4.097656 -21.285156 3.890625 -21.390625 C 3.691406 -21.503906 3.453125 -21.578125 3.171875 -21.609375 C 2.890625 -21.640625 2.585938 -21.65625 2.265625 -21.65625 Z M 7.796875 -10.78125 C 8.171875 -10.78125 8.570312 -10.789062 9 -10.8125 C 9.425781 -10.832031 9.835938 -10.851562 10.234375 -10.875 C 10.703125 -10.914062 11.132812 -10.960938 11.53125 -11.015625 C 11.9375 -11.078125 12.351562 -11.191406 12.78125 -11.359375 C 14.8125 -12.179688 15.828125 -13.867188 15.828125 -16.421875 C 15.828125 -17.992188 15.351562 -19.28125 14.40625 -20.28125 C 13.457031 -21.28125 12.054688 -21.78125 10.203125 -21.78125 C 9.484375 -21.78125 8.898438 -21.675781 8.453125 -21.46875 C 8.015625 -21.269531 7.796875 -20.757812 7.796875 -19.9375 Z M 7.796875 -10.78125 "/></g></g></g><g fill="#ffffff" fill-opacity="1"><g transform="translate(215.736729, 35.725839)"><g><path d="M 18.515625 -22.34375 L 20.109375 -17.125 L 19.421875 -16.96875 C 18.992188 -17.613281 18.566406 -18.222656 18.140625 -18.796875 C 17.722656 -19.367188 17.265625 -19.863281 16.765625 -20.28125 C 16.273438 -20.707031 15.722656 -21.039062 15.109375 -21.28125 C 14.492188 -21.53125 13.773438 -21.65625 12.953125 -21.65625 L 7.90625 -21.65625 L 7.90625 -11.71875 L 9.1875 -11.71875 C 10.1875 -11.71875 11.007812 -11.757812 11.65625 -11.84375 C 12.300781 -11.9375 12.835938 -12.125 13.265625 -12.40625 C 13.703125 -12.6875 14.050781 -13.09375 14.3125 -13.625 C 14.570312 -14.164062 14.796875 -14.890625 14.984375 -15.796875 L 15.5 -15.796875 L 15.5 -6.46875 L 14.984375 -6.46875 L 14.984375 -6.5 C 14.898438 -7.28125 14.765625 -7.945312 14.578125 -8.5 C 14.398438 -9.050781 14.128906 -9.5 13.765625 -9.84375 C 13.410156 -10.1875 12.953125 -10.4375 12.390625 -10.59375 C 11.835938 -10.757812 11.140625 -10.84375 10.296875 -10.84375 L 7.90625 -10.84375 L 7.90625 -2.203125 C 7.90625 -1.878906 7.960938 -1.613281 8.078125 -1.40625 C 8.191406 -1.195312 8.347656 -1.039062 8.546875 -0.9375 C 8.742188 -0.832031 8.960938 -0.765625 9.203125 -0.734375 C 9.453125 -0.703125 9.707031 -0.6875 9.96875 -0.6875 L 13.890625 -0.6875 C 14.554688 -0.6875 15.164062 -0.78125 15.71875 -0.96875 C 16.269531 -1.164062 16.867188 -1.585938 17.515625 -2.234375 C 17.921875 -2.640625 18.375 -3.128906 18.875 -3.703125 C 19.375 -4.273438 19.90625 -5.023438 20.46875 -5.953125 L 21.015625 -5.796875 L 19.71875 0 L 2.109375 0 L 2.109375 -0.6875 C 2.453125 -0.6875 2.78125 -0.703125 3.09375 -0.734375 C 3.40625 -0.765625 3.671875 -0.832031 3.890625 -0.9375 C 4.117188 -1.039062 4.296875 -1.207031 4.421875 -1.4375 C 4.554688 -1.664062 4.625 -1.992188 4.625 -2.421875 L 4.625 -19.90625 C 4.625 -20.550781 4.421875 -21.003906 4.015625 -21.265625 C 3.609375 -21.523438 2.992188 -21.65625 2.171875 -21.65625 L 2 -21.65625 L 2 -22.34375 Z M 18.515625 -22.34375 "/></g></g></g><g fill="#ffffff" fill-opacity="1"><g transform="translate(240.399677, 35.725839)"><g><path d="M 2.265625 -16.125 C 2.265625 -17.113281 2.445312 -18.015625 2.8125 -18.828125 C 3.175781 -19.640625 3.675781 -20.320312 4.3125 -20.875 C 4.957031 -21.4375 5.691406 -21.867188 6.515625 -22.171875 C 7.347656 -22.472656 8.238281 -22.625 9.1875 -22.625 C 10.164062 -22.625 11.117188 -22.460938 12.046875 -22.140625 C 12.972656 -21.816406 13.757812 -21.363281 14.40625 -20.78125 L 15.375 -21.625 L 15.828125 -21.625 L 15.828125 -14.984375 L 15.25 -14.984375 C 15.1875 -15.222656 15.101562 -15.519531 15 -15.875 C 14.90625 -16.238281 14.796875 -16.617188 14.671875 -17.015625 C 14.554688 -17.410156 14.421875 -17.8125 14.265625 -18.21875 C 14.117188 -18.632812 13.941406 -19.023438 13.734375 -19.390625 C 13.335938 -20.054688 12.78125 -20.648438 12.0625 -21.171875 C 11.351562 -21.691406 10.535156 -21.953125 9.609375 -21.953125 C 8.078125 -21.953125 6.90625 -21.492188 6.09375 -20.578125 C 5.289062 -19.660156 4.890625 -18.457031 4.890625 -16.96875 C 4.890625 -16.425781 4.957031 -15.957031 5.09375 -15.5625 C 5.238281 -15.175781 5.441406 -14.835938 5.703125 -14.546875 C 5.960938 -14.253906 6.265625 -14.007812 6.609375 -13.8125 C 6.953125 -13.625 7.328125 -13.457031 7.734375 -13.3125 C 8.535156 -13.007812 9.375 -12.734375 10.25 -12.484375 C 11.125 -12.234375 11.96875 -11.890625 12.78125 -11.453125 C 13.28125 -11.203125 13.75 -10.90625 14.1875 -10.5625 C 14.632812 -10.226562 15.023438 -9.835938 15.359375 -9.390625 C 15.691406 -8.953125 15.957031 -8.445312 16.15625 -7.875 C 16.351562 -7.3125 16.453125 -6.660156 16.453125 -5.921875 C 16.453125 -4.796875 16.25 -3.828125 15.84375 -3.015625 C 15.445312 -2.210938 14.894531 -1.550781 14.1875 -1.03125 C 13.488281 -0.519531 12.671875 -0.144531 11.734375 0.09375 C 10.796875 0.332031 9.796875 0.453125 8.734375 0.453125 C 7.703125 0.453125 6.726562 0.304688 5.8125 0.015625 C 4.894531 -0.273438 4.023438 -0.679688 3.203125 -1.203125 L 1.96875 0 L 1.59375 0 L 1.59375 -6.765625 L 2.234375 -6.765625 C 2.492188 -4.753906 3.128906 -3.160156 4.140625 -1.984375 C 5.160156 -0.816406 6.585938 -0.234375 8.421875 -0.234375 C 9.390625 -0.234375 10.207031 -0.375 10.875 -0.65625 C 11.539062 -0.945312 12.078125 -1.328125 12.484375 -1.796875 C 12.898438 -2.265625 13.191406 -2.769531 13.359375 -3.3125 C 13.535156 -3.863281 13.625 -4.398438 13.625 -4.921875 C 13.625 -5.910156 13.363281 -6.679688 12.84375 -7.234375 C 12.332031 -7.785156 11.707031 -8.210938 10.96875 -8.515625 C 10.5 -8.710938 9.984375 -8.898438 9.421875 -9.078125 C 8.859375 -9.265625 8.289062 -9.453125 7.71875 -9.640625 C 7.144531 -9.835938 6.578125 -10.054688 6.015625 -10.296875 C 5.460938 -10.535156 4.957031 -10.816406 4.5 -11.140625 C 3.8125 -11.609375 3.265625 -12.234375 2.859375 -13.015625 C 2.460938 -13.796875 2.265625 -14.832031 2.265625 -16.125 Z M 2.265625 -16.125 "/></g></g></g><g fill="#ffffff" fill-opacity="1"><g transform="translate(259.689908, 35.725839)"><g><path d="M 2.265625 -16.125 C 2.265625 -17.113281 2.445312 -18.015625 2.8125 -18.828125 C 3.175781 -19.640625 3.675781 -20.320312 4.3125 -20.875 C 4.957031 -21.4375 5.691406 -21.867188 6.515625 -22.171875 C 7.347656 -22.472656 8.238281 -22.625 9.1875 -22.625 C 10.164062 -22.625 11.117188 -22.460938 12.046875 -22.140625 C 12.972656 -21.816406 13.757812 -21.363281 14.40625 -20.78125 L 15.375 -21.625 L 15.828125 -21.625 L 15.828125 -14.984375 L 15.25 -14.984375 C 15.1875 -15.222656 15.101562 -15.519531 15 -15.875 C 14.90625 -16.238281 14.796875 -16.617188 14.671875 -17.015625 C 14.554688 -17.410156 14.421875 -17.8125 14.265625 -18.21875 C 14.117188 -18.632812 13.941406 -19.023438 13.734375 -19.390625 C 13.335938 -20.054688 12.78125 -20.648438 12.0625 -21.171875 C 11.351562 -21.691406 10.535156 -21.953125 9.609375 -21.953125 C 8.078125 -21.953125 6.90625 -21.492188 6.09375 -20.578125 C 5.289062 -19.660156 4.890625 -18.457031 4.890625 -16.96875 C 4.890625 -16.425781 4.957031 -15.957031 5.09375 -15.5625 C 5.238281 -15.175781 5.441406 -14.835938 5.703125 -14.546875 C 5.960938 -14.253906 6.265625 -14.007812 6.609375 -13.8125 C 6.953125 -13.625 7.328125 -13.457031 7.734375 -13.3125 C 8.535156 -13.007812 9.375 -12.734375 10.25 -12.484375 C 11.125 -12.234375 11.96875 -11.890625 12.78125 -11.453125 C 13.28125 -11.203125 13.75 -10.90625 14.1875 -10.5625 C 14.632812 -10.226562 15.023438 -9.835938 15.359375 -9.390625 C 15.691406 -8.953125 15.957031 -8.445312 16.15625 -7.875 C 16.351562 -7.3125 16.453125 -6.660156 16.453125 -5.921875 C 16.453125 -4.796875 16.25 -3.828125 15.84375 -3.015625 C 15.445312 -2.210938 14.894531 -1.550781 14.1875 -1.03125 C 13.488281 -0.519531 12.671875 -0.144531 11.734375 0.09375 C 10.796875 0.332031 9.796875 0.453125 8.734375 0.453125 C 7.703125 0.453125 6.726562 0.304688 5.8125 0.015625 C 4.894531 -0.273438 4.023438 -0.679688 3.203125 -1.203125 L 1.96875 0 L 1.59375 0 L 1.59375 -6.765625 L 2.234375 -6.765625 C 2.492188 -4.753906 3.128906 -3.160156 4.140625 -1.984375 C 5.160156 -0.816406 6.585938 -0.234375 8.421875 -0.234375 C 9.390625 -0.234375 10.207031 -0.375 10.875 -0.65625 C 11.539062 -0.945312 12.078125 -1.328125 12.484375 -1.796875 C 12.898438 -2.265625 13.191406 -2.769531 13.359375 -3.3125 C 13.535156 -3.863281 13.625 -4.398438 13.625 -4.921875 C 13.625 -5.910156 13.363281 -6.679688 12.84375 -7.234375 C 12.332031 -7.785156 11.707031 -8.210938 10.96875 -8.515625 C 10.5 -8.710938 9.984375 -8.898438 9.421875 -9.078125 C 8.859375 -9.265625 8.289062 -9.453125 7.71875 -9.640625 C 7.144531 -9.835938 6.578125 -10.054688 6.015625 -10.296875 C 5.460938 -10.535156 4.957031 -10.816406 4.5 -11.140625 C 3.8125 -11.609375 3.265625 -12.234375 2.859375 -13.015625 C 2.460938 -13.796875 2.265625 -14.832031 2.265625 -16.125 Z M 2.265625 -16.125 "/></g></g></g><g fill="#ffffff" fill-opacity="1"><g transform="translate(278.980139, 35.725839)"><g><path d="M 18.515625 -22.34375 L 20.109375 -17.125 L 19.421875 -16.96875 C 18.992188 -17.613281 18.566406 -18.222656 18.140625 -18.796875 C 17.722656 -19.367188 17.265625 -19.863281 16.765625 -20.28125 C 16.273438 -20.707031 15.722656 -21.039062 15.109375 -21.28125 C 14.492188 -21.53125 13.773438 -21.65625 12.953125 -21.65625 L 7.90625 -21.65625 L 7.90625 -11.71875 L 9.1875 -11.71875 C 10.1875 -11.71875 11.007812 -11.757812 11.65625 -11.84375 C 12.300781 -11.9375 12.835938 -12.125 13.265625 -12.40625 C 13.703125 -12.6875 14.050781 -13.09375 14.3125 -13.625 C 14.570312 -14.164062 14.796875 -14.890625 14.984375 -15.796875 L 15.5 -15.796875 L 15.5 -6.46875 L 14.984375 -6.46875 L 14.984375 -6.5 C 14.898438 -7.28125 14.765625 -7.945312 14.578125 -8.5 C 14.398438 -9.050781 14.128906 -9.5 13.765625 -9.84375 C 13.410156 -10.1875 12.953125 -10.4375 12.390625 -10.59375 C 11.835938 -10.757812 11.140625 -10.84375 10.296875 -10.84375 L 7.90625 -10.84375 L 7.90625 -2.203125 C 7.90625 -1.878906 7.960938 -1.613281 8.078125 -1.40625 C 8.191406 -1.195312 8.347656 -1.039062 8.546875 -0.9375 C 8.742188 -0.832031 8.960938 -0.765625 9.203125 -0.734375 C 9.453125 -0.703125 9.707031 -0.6875 9.96875 -0.6875 L 13.890625 -0.6875 C 14.554688 -0.6875 15.164062 -0.78125 15.71875 -0.96875 C 16.269531 -1.164062 16.867188 -1.585938 17.515625 -2.234375 C 17.921875 -2.640625 18.375 -3.128906 18.875 -3.703125 C 19.375 -4.273438 19.90625 -5.023438 20.46875 -5.953125 L 21.015625 -5.796875 L 19.71875 0 L 2.109375 0 L 2.109375 -0.6875 C 2.453125 -0.6875 2.78125 -0.703125 3.09375 -0.734375 C 3.40625 -0.765625 3.671875 -0.832031 3.890625 -0.9375 C 4.117188 -1.039062 4.296875 -1.207031 4.421875 -1.4375 C 4.554688 -1.664062 4.625 -1.992188 4.625 -2.421875 L 4.625 -19.90625 C 4.625 -20.550781 4.421875 -21.003906 4.015625 -21.265625 C 3.609375 -21.523438 2.992188 -21.65625 2.171875 -21.65625 L 2 -21.65625 L 2 -22.34375 Z M 18.515625 -22.34375 "/></g></g></g></svg>