<svg width="100" height="52" viewBox="0 0 100 52" fill="none" xmlns="http://www.w3.org/2000/svg">
<path d="M28.893 9.34885C30.8957 7.34616 31.754 4.48515 31.4678 1.62415C28.6069 1.91025 26.0319 3.34074 24.3154 5.34345C22.5987 7.34616 21.4544 10.2071 21.7404 12.782C24.6015 13.0682 27.1763 11.6377 28.893 9.34885ZM31.4678 13.3543C27.4625 13.0682 24.0292 15.6431 22.0266 15.6431C20.0239 15.6431 17.1629 13.6403 14.0158 13.6403C10.0104 13.6403 6.00495 15.9292 4.00226 19.6485C-0.289243 27.0871 2.85786 38.2449 7.14936 44.2531C9.15206 47.1142 11.727 50.5473 14.8741 50.5473C18.0212 50.5473 19.1656 48.5446 22.8848 48.5446C26.6042 48.5446 27.7486 50.5473 30.8957 50.5473C34.0428 50.5473 36.3316 47.6863 38.3343 44.5391C39.7648 42.5364 40.9091 39.9616 41.7675 37.6728C37.762 35.9561 35.1872 31.9507 35.1872 27.6592C35.1872 23.94 37.1899 20.2206 40.337 18.218C38.0483 15.357 34.9011 13.6403 31.4678 13.3543ZM56.9308 7.63225V15.9292H63.511V21.3651H56.9308V40.8199C56.9308 43.6808 58.3614 45.1114 61.2223 45.1114C62.0806 45.1114 62.6527 45.1114 63.511 44.8252V50.2613C62.3667 50.5473 60.9362 50.5473 59.5058 50.5473C52.6393 50.5473 50.0644 47.9723 50.0644 41.392V21.3651H44.9146V15.9292H49.7782V7.63225H56.9308ZM86.1129 50.2613H78.9606L66.9444 15.9292H74.0968L82.6798 43.3948H82.9658L91.5488 15.9292H98.4153L86.1129 50.2613Z" fill="#FAFAFA"/>
</svg>
