<svg width="100" height="34" viewBox="0 0 100 34" fill="none" xmlns="http://www.w3.org/2000/svg">
<mask id="mask0_4029_237" style="mask-type:luminance" maskUnits="userSpaceOnUse" x="2" y="2" width="96" height="30">
<path d="M97.4464 2.29053H2.58203V31.6533H97.4464V2.29053Z" fill="white"/>
</mask>
<g mask="url(#mask0_4029_237)">
<path d="M17.5548 11.9265C17.5548 9.24847 15.3888 7.09179 12.7404 7.09179H10.3528V16.7184H12.7404C15.3888 16.7184 17.5548 14.5603 17.5548 11.9265ZM28.4154 31.1177H19.6513L12.693 21.5124H10.3528V31.097H2.62891V2.30273H13.6939C20.0728 2.30273 25.2794 6.61754 25.2794 11.9265C25.2794 15.1644 23.2835 18.0563 20.2457 19.8257L28.4154 31.1177Z" fill="#132957"/>
<path d="M37.1246 13.6557C35.0848 13.6557 33.3498 16.4136 33.3498 19.8276C33.3498 23.2417 35.0848 26.0032 37.1246 26.0032C39.2118 26.0032 40.9441 23.2417 40.9441 19.8276C40.9441 16.4136 39.2118 13.6557 37.1246 13.6557ZM49.0135 19.8276C49.0135 26.3496 43.6814 31.5723 37.1246 31.5723C30.57 31.5723 25.2773 26.3496 25.2773 19.8276C25.2773 13.3105 30.57 8.08496 37.1246 8.08496C43.6814 8.08496 49.0135 13.3105 49.0135 19.8276Z" fill="#132957"/>
<path d="M67.1397 8.56245L58.242 17.4116V8.5332H50.5195V31.0978H58.242V21.9446L67.5312 31.0978H77.2511L65.4468 19.3543L75.2241 9.63222V23.023C75.2241 27.469 77.9122 31.5721 84.6811 31.5721C87.8947 31.5721 90.8436 29.7591 92.2766 28.1188L95.749 31.0978H97.3972V8.56245H89.6748V20.3029V23.1528C88.8051 24.6627 87.5935 25.6119 85.7208 25.6119C83.8207 25.6119 82.9489 24.4915 82.9489 20.9077V19.9621V8.56245H67.1397Z" fill="#132957"/>
</g>
</svg>
